<?xml version='1.0' encoding='utf-8'?>
<svg xmlns="http://www.w3.org/2000/svg" viewBox="0 0 294 294" width="294" height="294"><rect width="294" height="294" fill="#FDECE4" /><g fill="#012444" fill-rule="evenodd" clip-rule="evenodd"><path d="M 167.0,168.0 L 164.0,168.0 L 159.0,175.0 L 159.0,183.0 L 164.0,188.0 L 167.0,187.0 L 170.0,182.0 L 170.0,171.0 Z" /><path d="M 135.0,168.0 L 132.0,171.0 L 131.0,179.0 L 134.0,186.0 L 136.0,188.0 L 139.0,188.0 L 142.0,184.0 L 143.0,177.0 L 141.0,171.0 L 138.0,168.0 Z" /><path d="M 149.0,150.0 L 146.0,154.0 L 146.0,164.0 L 150.0,170.0 L 153.0,170.0 L 156.0,164.0 L 156.0,155.0 L 152.0,150.0 Z" /><path d="M 178.0,26.0 L 170.0,27.0 L 162.0,32.0 L 153.0,45.0 L 149.0,43.0 L 148.0,39.0 L 143.0,33.0 L 134.0,27.0 L 126.0,26.0 L 115.0,31.0 L 105.0,44.0 L 99.0,56.0 L 95.0,68.0 L 94.0,78.0 L 90.0,79.0 L 85.0,76.0 L 74.0,76.0 L 66.0,80.0 L 61.0,85.0 L 53.0,100.0 L 49.0,115.0 L 48.0,136.0 L 50.0,147.0 L 55.0,158.0 L 60.0,163.0 L 67.0,166.0 L 81.0,165.0 L 83.0,167.0 L 78.0,185.0 L 78.0,206.0 L 81.0,214.0 L 89.0,223.0 L 99.0,228.0 L 125.0,228.0 L 126.0,233.0 L 124.0,238.0 L 124.0,244.0 L 128.0,254.0 L 135.0,261.0 L 146.0,265.0 L 157.0,264.0 L 165.0,260.0 L 170.0,255.0 L 173.0,250.0 L 175.0,242.0 L 173.0,230.0 L 175.0,228.0 L 196.0,229.0 L 206.0,226.0 L 215.0,219.0 L 221.0,209.0 L 223.0,200.0 L 222.0,184.0 L 218.0,167.0 L 220.0,165.0 L 233.0,166.0 L 243.0,162.0 L 250.0,153.0 L 254.0,137.0 L 254.0,122.0 L 252.0,110.0 L 248.0,97.0 L 242.0,86.0 L 236.0,80.0 L 228.0,76.0 L 220.0,76.0 L 211.0,81.0 L 208.0,65.0 L 199.0,44.0 L 194.0,36.0 L 188.0,30.0 Z M 129.0,234.0 L 133.0,229.0 L 136.0,228.0 L 145.0,229.0 L 148.0,232.0 L 152.0,232.0 L 155.0,229.0 L 162.0,228.0 L 167.0,229.0 L 172.0,236.0 L 172.0,241.0 L 166.0,250.0 L 156.0,255.0 L 153.0,259.0 L 149.0,259.0 L 144.0,254.0 L 134.0,249.0 L 130.0,245.0 Z M 121.0,114.0 L 131.0,107.0 L 141.0,103.0 L 162.0,102.0 L 178.0,110.0 L 188.0,120.0 L 195.0,132.0 L 201.0,151.0 L 213.0,172.0 L 216.0,182.0 L 216.0,205.0 L 213.0,212.0 L 206.0,219.0 L 196.0,223.0 L 185.0,223.0 L 165.0,220.0 L 138.0,220.0 L 120.0,223.0 L 105.0,223.0 L 95.0,219.0 L 90.0,215.0 L 85.0,206.0 L 84.0,185.0 L 86.0,175.0 L 90.0,165.0 L 108.0,144.0 L 113.0,126.0 Z M 223.0,80.0 L 231.0,81.0 L 238.0,88.0 L 243.0,97.0 L 249.0,115.0 L 249.0,145.0 L 246.0,153.0 L 238.0,160.0 L 230.0,160.0 L 224.0,157.0 L 215.0,148.0 L 209.0,137.0 L 206.0,125.0 L 207.0,108.0 L 211.0,92.0 L 215.0,86.0 Z M 84.0,80.0 L 91.0,86.0 L 95.0,95.0 L 98.0,111.0 L 98.0,130.0 L 95.0,140.0 L 87.0,152.0 L 79.0,158.0 L 73.0,160.0 L 66.0,160.0 L 62.0,158.0 L 58.0,153.0 L 53.0,138.0 L 53.0,124.0 L 58.0,103.0 L 65.0,89.0 L 76.0,80.0 Z M 172.0,31.0 L 180.0,31.0 L 186.0,35.0 L 193.0,45.0 L 203.0,69.0 L 205.0,79.0 L 204.0,96.0 L 198.0,104.0 L 193.0,106.0 L 181.0,106.0 L 174.0,103.0 L 163.0,94.0 L 158.0,84.0 L 158.0,55.0 L 160.0,46.0 L 164.0,38.0 Z M 129.0,30.0 L 134.0,32.0 L 143.0,43.0 L 147.0,59.0 L 147.0,82.0 L 143.0,94.0 L 136.0,100.0 L 124.0,106.0 L 111.0,106.0 L 103.0,102.0 L 99.0,93.0 L 99.0,80.0 L 101.0,68.0 L 111.0,45.0 L 121.0,33.0 Z" /></g><g fill="#FFFFFF" fill-rule="evenodd" clip-rule="evenodd"><path d="M 122.0,116.0 L 116.0,125.0 L 113.0,138.0 L 109.0,147.0 L 95.0,162.0 L 90.0,171.0 L 87.0,182.0 L 87.0,204.0 L 90.0,211.0 L 96.0,217.0 L 103.0,220.0 L 123.0,220.0 L 142.0,217.0 L 197.0,220.0 L 205.0,217.0 L 211.0,211.0 L 214.0,203.0 L 213.0,180.0 L 207.0,165.0 L 199.0,153.0 L 192.0,131.0 L 186.0,121.0 L 174.0,110.0 L 158.0,104.0 L 140.0,106.0 Z M 163.0,166.0 L 169.0,166.0 L 173.0,173.0 L 172.0,184.0 L 166.0,190.0 L 161.0,190.0 L 157.0,185.0 L 157.0,173.0 Z M 133.0,166.0 L 141.0,167.0 L 145.0,174.0 L 145.0,183.0 L 140.0,190.0 L 135.0,190.0 L 129.0,182.0 L 129.0,172.0 Z M 149.0,147.0 L 154.0,148.0 L 158.0,153.0 L 159.0,157.0 L 158.0,166.0 L 156.0,170.0 L 152.0,173.0 L 150.0,173.0 L 144.0,167.0 L 143.0,155.0 Z M 132.0,115.0 L 141.0,111.0 L 161.0,112.0 L 176.0,120.0 L 184.0,129.0 L 209.0,184.0 L 210.0,202.0 L 208.0,207.0 L 202.0,214.0 L 194.0,217.0 L 185.0,217.0 L 180.0,215.0 L 186.0,188.0 L 186.0,167.0 L 183.0,150.0 L 175.0,134.0 L 167.0,126.0 L 158.0,122.0 L 148.0,122.0 L 139.0,126.0 L 130.0,135.0 L 124.0,148.0 L 121.0,163.0 L 121.0,195.0 L 126.0,216.0 L 124.0,218.0 L 106.0,218.0 L 98.0,215.0 L 92.0,209.0 L 90.0,203.0 L 90.0,187.0 L 93.0,174.0 L 97.0,166.0 L 112.0,149.0 L 122.0,125.0 Z" /><path d="M 225.0,82.0 L 220.0,84.0 L 213.0,94.0 L 209.0,111.0 L 209.0,128.0 L 212.0,138.0 L 218.0,148.0 L 229.0,157.0 L 236.0,158.0 L 244.0,152.0 L 246.0,147.0 L 248.0,135.0 L 247.0,117.0 L 243.0,103.0 L 237.0,91.0 L 231.0,84.0 Z M 223.0,86.0 L 229.0,86.0 L 233.0,91.0 L 244.0,122.0 L 244.0,137.0 L 242.0,149.0 L 240.0,153.0 L 235.0,157.0 L 231.0,157.0 L 224.0,152.0 L 216.0,139.0 L 212.0,127.0 L 212.0,111.0 L 214.0,100.0 L 219.0,89.0 Z" /><path d="M 82.0,82.0 L 74.0,84.0 L 66.0,92.0 L 60.0,105.0 L 57.0,116.0 L 55.0,131.0 L 56.0,140.0 L 59.0,150.0 L 66.0,157.0 L 74.0,157.0 L 80.0,154.0 L 76.0,156.0 L 67.0,154.0 L 63.0,150.0 L 60.0,140.0 L 61.0,113.0 L 69.0,93.0 L 76.0,87.0 L 81.0,86.0 L 88.0,91.0 L 95.0,117.0 L 95.0,130.0 L 93.0,137.0 L 87.0,148.0 L 82.0,153.0 L 90.0,144.0 L 95.0,132.0 L 96.0,116.0 L 92.0,93.0 L 89.0,87.0 Z" /><path d="M 174.0,33.0 L 166.0,39.0 L 162.0,48.0 L 160.0,62.0 L 160.0,81.0 L 163.0,90.0 L 172.0,99.0 L 183.0,104.0 L 191.0,104.0 L 196.0,102.0 L 202.0,94.0 L 203.0,87.0 L 201.0,71.0 L 195.0,54.0 L 187.0,40.0 L 181.0,34.0 Z M 174.0,36.0 L 180.0,37.0 L 185.0,43.0 L 192.0,57.0 L 197.0,74.0 L 198.0,91.0 L 196.0,96.0 L 189.0,101.0 L 183.0,101.0 L 173.0,96.0 L 167.0,89.0 L 164.0,81.0 L 164.0,48.0 L 167.0,42.0 Z" /><path d="M 131.0,33.0 L 126.0,33.0 L 119.0,38.0 L 108.0,55.0 L 103.0,70.0 L 102.0,94.0 L 103.0,97.0 L 112.0,104.0 L 122.0,104.0 L 132.0,100.0 L 139.0,94.0 L 144.0,85.0 L 145.0,65.0 L 143.0,51.0 L 140.0,42.0 Z M 131.0,36.0 L 136.0,41.0 L 139.0,48.0 L 140.0,65.0 L 142.0,72.0 L 142.0,85.0 L 138.0,93.0 L 130.0,99.0 L 124.0,101.0 L 116.0,101.0 L 112.0,99.0 L 106.0,92.0 L 104.0,84.0 L 105.0,71.0 L 110.0,56.0 L 116.0,46.0 L 126.0,36.0 Z" /><path d="M 0.0,0.0 L 0.0,293.0 L 293.0,293.0 L 293.0,0.0 Z M 162.0,271.0 L 165.0,270.0 L 166.0,273.0 L 163.0,274.0 Z M 115.0,249.0 L 118.0,248.0 L 119.0,251.0 L 116.0,252.0 Z M 185.0,241.0 L 188.0,240.0 L 190.0,244.0 L 187.0,245.0 Z M 113.0,240.0 L 116.0,239.0 L 117.0,243.0 L 114.0,244.0 Z M 77.0,228.0 L 81.0,227.0 L 82.0,230.0 L 78.0,231.0 Z M 70.0,216.0 L 73.0,215.0 L 75.0,220.0 L 72.0,221.0 Z M 230.0,211.0 L 235.0,210.0 L 236.0,213.0 L 234.0,215.0 L 231.0,215.0 Z M 50.0,174.0 L 53.0,173.0 L 54.0,176.0 L 51.0,177.0 Z M 254.0,171.0 L 257.0,172.0 L 256.0,177.0 L 252.0,176.0 L 252.0,173.0 Z M 249.0,82.0 L 252.0,81.0 L 254.0,83.0 L 254.0,86.0 L 250.0,87.0 Z M 216.0,64.0 L 219.0,63.0 L 222.0,66.0 L 222.0,69.0 L 218.0,70.0 Z M 124.0,24.0 L 132.0,24.0 L 139.0,27.0 L 148.0,35.0 L 152.0,43.0 L 158.0,33.0 L 169.0,25.0 L 181.0,24.0 L 189.0,28.0 L 197.0,36.0 L 207.0,55.0 L 211.0,67.0 L 212.0,79.0 L 215.0,76.0 L 223.0,73.0 L 230.0,74.0 L 236.0,77.0 L 244.0,85.0 L 249.0,93.0 L 253.0,104.0 L 256.0,119.0 L 256.0,141.0 L 253.0,152.0 L 249.0,159.0 L 243.0,165.0 L 236.0,168.0 L 221.0,168.0 L 225.0,188.0 L 225.0,204.0 L 220.0,216.0 L 212.0,225.0 L 199.0,231.0 L 176.0,230.0 L 175.0,231.0 L 177.0,236.0 L 177.0,245.0 L 173.0,255.0 L 166.0,262.0 L 155.0,267.0 L 143.0,267.0 L 134.0,263.0 L 126.0,255.0 L 122.0,246.0 L 122.0,236.0 L 124.0,231.0 L 97.0,230.0 L 89.0,226.0 L 81.0,218.0 L 75.0,204.0 L 75.0,189.0 L 80.0,168.0 L 65.0,168.0 L 59.0,165.0 L 51.0,156.0 L 46.0,140.0 L 46.0,119.0 L 48.0,108.0 L 52.0,96.0 L 59.0,84.0 L 66.0,77.0 L 76.0,73.0 L 82.0,73.0 L 92.0,77.0 L 93.0,66.0 L 104.0,41.0 L 115.0,28.0 Z" /></g><g fill="#CA8274" fill-rule="evenodd" clip-rule="evenodd"><path d="M 130.0,119.0 L 124.0,126.0 L 114.0,150.0 L 96.0,172.0 L 93.0,182.0 L 94.0,208.0 L 100.0,214.0 L 104.0,215.0 L 124.0,215.0 L 121.0,207.0 L 118.0,188.0 L 118.0,167.0 L 121.0,150.0 L 127.0,136.0 L 138.0,124.0 L 146.0,120.0 L 154.0,119.0 L 162.0,121.0 L 171.0,126.0 L 179.0,136.0 L 185.0,149.0 L 188.0,163.0 L 188.0,190.0 L 182.0,214.0 L 197.0,214.0 L 201.0,212.0 L 208.0,201.0 L 208.0,190.0 L 206.0,182.0 L 187.0,139.0 L 179.0,126.0 L 171.0,119.0 L 155.0,113.0 L 143.0,113.0 Z" /><path d="M 82.0,89.0 L 78.0,89.0 L 72.0,93.0 L 67.0,102.0 L 62.0,121.0 L 63.0,143.0 L 66.0,150.0 L 70.0,153.0 L 78.0,153.0 L 85.0,147.0 L 90.0,139.0 L 93.0,128.0 L 90.0,104.0 L 86.0,92.0 Z" /><path d="M 224.0,88.0 L 221.0,90.0 L 217.0,98.0 L 214.0,114.0 L 214.0,126.0 L 218.0,138.0 L 223.0,147.0 L 228.0,153.0 L 234.0,155.0 L 237.0,153.0 L 240.0,147.0 L 242.0,124.0 L 232.0,94.0 L 229.0,89.0 Z" /><path d="M 174.0,39.0 L 169.0,43.0 L 166.0,49.0 L 166.0,80.0 L 170.0,90.0 L 174.0,94.0 L 181.0,98.0 L 188.0,99.0 L 192.0,97.0 L 195.0,92.0 L 195.0,76.0 L 189.0,55.0 L 185.0,47.0 L 179.0,39.0 Z" /><path d="M 129.0,38.0 L 125.0,39.0 L 115.0,52.0 L 110.0,62.0 L 107.0,74.0 L 108.0,90.0 L 113.0,97.0 L 118.0,99.0 L 123.0,99.0 L 131.0,96.0 L 135.0,93.0 L 140.0,85.0 L 137.0,50.0 L 132.0,39.0 Z" /></g><g fill="#D0392C" fill-rule="evenodd" clip-rule="evenodd"><path d="M 131.0,237.0 L 132.0,243.0 L 151.0,257.0 L 157.0,251.0 L 166.0,246.0 L 169.0,241.0 L 169.0,236.0 L 164.0,231.0 L 157.0,231.0 L 151.0,236.0 L 149.0,236.0 L 143.0,231.0 L 136.0,231.0 L 133.0,233.0 Z" /></g></svg>